<?xml version="1.0" encoding="utf-8"?>
<!-- Generator: Adobe Illustrator 18.1.1, SVG Export Plug-In . SVG Version: 6.00 Build 0)  -->
<svg version="1.1" id="Layer_1" xmlns="http://www.w3.org/2000/svg" xmlns:xlink="http://www.w3.org/1999/xlink" x="0px" y="0px"
	 viewBox="270 360 72 72" enable-background="new 270 360 72 72" xml:space="preserve">
<g>
	<rect x="281.9" y="387.8" fill="#FFFFFF" width="9.9" height="31.7"/>
	<path fill="#FFFFFF" d="M286.5,383.6c-3.6,0-6.1-2.3-6.1-5.5s2.3-5.5,6.1-5.5c3.6,0,5.9,2.3,5.9,5.5S290.3,383.6,286.5,383.6z"/>
</g>
<path fill="#FFFFFF" d="M331.6,419.5h-11.5v-16.6c0-4.2-1.7-7.3-5.5-7.3c-3.1,0-4.6,1.9-5.3,3.8c-0.2,0.6-0.2,1.7-0.2,2.5v17.6
	h-11.3c0,0,0.2-29.6,0-32.1h11.3v5c0.6-2.1,4.2-5.3,9.9-5.3c7.1,0,12.6,4.6,12.6,14.3L331.6,419.5L331.6,419.5z"/>
</svg>
