<?xml version="1.0" encoding="utf-8"?>
<!-- Generator: Adobe Illustrator 18.1.1, SVG Export Plug-In . SVG Version: 6.00 Build 0)  -->
<svg version="1.1" id="Layer_1" xmlns="http://www.w3.org/2000/svg" xmlns:xlink="http://www.w3.org/1999/xlink" x="0px" y="0px"
	 viewBox="270 360 72 72" enable-background="new 270 360 72 72" xml:space="preserve">
<path fill="#FFFFFF" d="M329.5,384.9c0,0.4,0,1.2,0,1.7c0,17.4-12.4,37.5-35,37.5c-7,0-13.5-2.3-18.8-6c1.2,0.2,2.1,0.2,3.1,0.2
	c5.6,0,11-2.1,15.1-5.6c-5.4,0-9.7-3.7-11.4-9.1c0.6,0.2,1.7,0.2,2.3,0.2c1.2,0,2.3-0.2,3.3-0.4c-5.6-1.4-9.7-6.8-9.7-13v-0.2
	c1.7,0.8,3.5,1.7,5.6,1.7c-3.3-2.3-5.4-6.2-5.4-11c0-2.5,0.4-5,1.7-6.8c6,7.9,15.1,13.3,25.5,13.7c-0.2-1-0.2-2.1-0.2-3.1
	c0-7.5,5.6-13.3,12.4-13.3c3.5,0,6.4,1.7,8.9,4.1c3.1-0.6,5.6-1.9,7.9-3.3c-1,3.1-2.9,5.6-5.4,7.2c2.3-0.2,5-1,7-2.1
	C334.5,380.4,332.4,382.7,329.5,384.9z"/>
</svg>
