<?xml version="1.0" encoding="utf-8"?>
<!-- Generator: Adobe Illustrator 18.1.1, SVG Export Plug-In . SVG Version: 6.00 Build 0)  -->
<svg version="1.1" id="Layer_1" xmlns="http://www.w3.org/2000/svg" xmlns:xlink="http://www.w3.org/1999/xlink" x="0px" y="0px"
	 viewBox="0 0 23.2 23.5" enable-background="new 0 0 23.2 23.5" xml:space="preserve">
<g>
	<path fill="#FFFFFF" d="M15.5,13.5c2.1-3.1,1.8-7.4-1-10.1C13.1,1.9,11,1,8.9,1S4.8,1.9,3.2,3.4c-3.1,3.1-3.1,8.2,0,11.3
		C4.8,16.2,6.8,17,8.9,17c1.6,0,3.2-0.5,4.5-1.4l6.8,6.8l2.1-2.1L15.5,13.5z M12.4,12.6c-0.9,0.9-2.2,1.5-3.5,1.5s-2.6-0.5-3.5-1.5
		c-1.9-1.9-1.9-5.1,0-7.1C6.3,4.6,7.6,4,8.9,4s2.6,0.5,3.5,1.5C14.4,7.4,14.4,10.6,12.4,12.6z"/>
	<polygon fill="#FFFFFF" points="9.9,6.2 7.9,6.2 7.9,8 6.1,8 6.1,10 7.9,10 7.9,11.9 9.9,11.9 9.9,10 11.7,10 11.7,8 9.9,8 	"/>
</g>
</svg>
